<svg width="26" height="25" viewBox="0 0 26 25" fill="none" xmlns="http://www.w3.org/2000/svg">
    <path d="M13 0C6.09644 0 0.5 5.59644 0.5 12.5C0.5 19.4036 6.09644 25 13 25C19.9036 25 25.5 19.4036 25.5 12.5C25.5 5.59644 19.9036 0 13 0Z" fill="white"/>
    <path d="M13 1.5C6.92487 1.5 2 6.42487 2 12.5C2 18.5751 6.92487 23.5 13 23.5C19.0751 23.5 24 18.5751 24 12.5C24 6.42487 19.0751 1.5 13 1.5Z" stroke="#2C2E30" stroke-width="3"/>
    <path d="M9.5 12.5C9.5 14.433 11.067 16 13 16C14.933 16 16.5 14.433 16.5 12.5C16.5 10.567 14.933 9 13 9C11.067 9 9.5 10.567 9.5 12.5Z" fill="#1E75FF"/>
</svg>
